<?xml version="1.0" encoding="utf-8"?>
<!-- Designed by Vexels.com - 2016 All Rights Reserved - https://vexels.com/terms-and-conditions/  -->

<svg version="1.0" id="Capa_1" xmlns="http://www.w3.org/2000/svg" xmlns:xlink="http://www.w3.org/1999/xlink" x="0px" y="0px"
	 width="1200px" height="1200px" viewBox="0 0 1200 1200" enable-background="new 0 0 1200 1200" xml:space="preserve">
<g>
	<g>
		<g>
			<path fill="#880808" d="M985.712,778.312c-7.737-2.222-9.94-4.067-11.421-11.418c-1.474-7.367,13.617-1.85,13.617-1.85
				c-1.088-8.471-17.673-5.889-16.543-9.204c1.101-3.316,0.336-2.2-3.326-5.525c-3.69-3.318,0.351-1.846,2.196-6.258
				c1.838-4.421-7.731-10.671-11.78-16.203c-4.047-5.532,2.94-2.579,3.312-8.478c0.379-5.883-1.466,1.844-8.825,5.163
				c-7.381,3.305-15.113,11.787-15.113,11.787c-1.094-5.525-6.273-8.472-15.47-17.315c-9.19-8.829-42.311-61.925-42.311-61.925
				c-17.658-21.002-26.054-41.163-44.55-70.565c-18.467-29.406-2.51-15.971-23.494-50.408
				c-21.027-34.444-52.945-56.279-83.177-76.447c-30.261-20.155-59.663-36.132-87.376-38.642c-27.728-2.518-33.6,1.674-56.28-1.684
				c-22.686-3.358-31.918-16.807-52.938-17.641c-20.991-0.843-43.685-9.239-62.987-14.281
				c-19.332-5.036-81.504-37.798-81.504-37.798s10.935,16.799-3.361,0.832c-14.261-15.959-28.551-25.2-28.551-25.2
				c-20.997-22.678-55.442-56.278-55.442-56.278c-34.438-23.519-48.727-3.369-48.727-3.369s9.241,2.525-2.516,0
				c-11.773-2.518-15.963,14.29-15.963,14.29c-16.801,8.396-0.829,26.033-0.829,26.033c-15.12,0-1.688,12.612-1.688,12.612
				c-0.308,1.052-0.609,2.106-0.865,3.148c-10.299,40.755,17.658,61.535,17.658,61.535c0.844,15.123,14.289,23.519,14.289,23.519
				c-18.481-1.68,4.205,26.881,4.205,26.881c-9.254,5.045-13.445,10.921-13.445,10.921c-12.601,31.926,74.774,57.964,74.774,57.964
				c-10.083,9.237,15.106,19.317,15.106,19.317c-31.913,21.85,20.168,39.485,20.168,39.485l-0.722,1.18
				c-31.662,13.628-39.021,56.727-9.934,122.274c29.101,65.552,122.277,80.656,138.105,82.502
				c15.827,1.838,24.681-1.474,24.681-1.474c1.115,11.412,29.094,22.457,31.304,28.35c2.209,5.894,10.312,32.411,12.515,39.766
				c2.203,7.37,1.481,18.42-2.938,23.944c-4.421,5.523-5.529,7.743-9.948,13.629c-4.427,5.889-4.055,4.423-18.052,9.944
				c-13.989,5.525-40.151,11.414-13.624,7.731c26.533-3.673,28.365-7.731,36.832-9.207c8.468-1.466,8.096-4.421,11.043-3.684
				c2.954,0.744,2.581,2.217,4.055,5.528c1.472,3.316-6.63,4.431,10.313,9.581c16.936,5.153,18.037,13.252,20.998,6.25
				c2.94-6.994-12.523-13.62-12.523-13.62s0-0.008,2.482-2.887c10.663,0.172,31.404-1.88,39.936-2.8
				c0.093,0.058,0.2,0.119,0.294,0.165c5.156,2.206,2.953,3.31,8.481,2.206c5.522-1.109,11.408,2.947,18.767,5.536
				c7.361,2.564,8.476,14.715,11.057,10.677c2.568-4.062,2.196-4.43,1.831-11.418c-0.351-7.001-1.452-5.904-6.994-9.218
				c-5.515-3.308-2.568-2.94,0.379-5.521c2.947-2.579,21.356-2.218,33.522-3.308c12.143-1.115,35.703,1.466,51.916,0.361
				c16.199-1.105,2.21-4.055-7.367-6.258c-9.577-2.209-5.156-4.792-28.722-4.045c-23.566,0.737-45.3,3.301-58.197,2.203
				c-12.866-1.109-4.419-0.729-16.936-8.847c-12.515-8.092-62.607-72.537-65.554-75.488c-2.94-2.951-4.049-6.258-4.785-9.942
				c-0.737-3.686,12.515-4.062,17.307-5.528c4.791-1.474,5.893-4.417,11.786-11.422c5.886-6.987,17.293-9.94,56.336-18.412
				c39.042-8.472,60.778-3.312,60.778-3.312s-31.676-16.203,2.216-0.361c33.865,15.831,101.258,32.034,111.958,31.662
				c10.684-0.357,4.412-0.722,7.345,2.947c2.968,3.69,11.043,4.051,15.835,8.476c4.799,4.419,13.288,15.845,13.288,15.845
				c-4.82,5.885-22.471,14.361-22.471,14.361c-17.687,4.78-3.684,17.672-3.684,17.672c39.766,35.724,70.684,2.577,70.684,2.577
				c4.799,4.049,5.557,8.468,5.557,8.468c-1.488,16.948,6.979,19.525,6.979,19.525c9.562-3.315,13.26-22.096,13.26-22.096
				s6.637-1.849,9.219-0.737c2.56,1.091,4.398,0,5.513-0.744c1.087-0.737,4.799,0,4.799-2.581c0-2.572-1.13-4.045-2.216-6.623
				c-1.117-2.581,7.352-1.097,5.878-3.686c-1.481-2.579-1.817-2.203-1.481-3.316c0.372-1.097,4.799,1.835,8.489,0.737
				c3.677-1.105,1.459-4.417-4.419-9.197c-5.893-4.799-0.357-1.846,5.878-2.958c6.252-1.105,11.057,0.737,11.809-3.308
				c0.715-4.054-2.948-2.21-6.644-4.419c-3.669-2.214-4.049-7.002-2.218-6.258c1.838,0.733,18.803,1.835,20.984,0.737
				C989.761,782.359,993.423,780.513,985.712,778.312z M613.38,861.162c0.844,2.703,2.768,6.076,5.101,9.173
				c-8.068-0.204-17.166-2.925-22.872-4.906c-0.164-1.216-0.472-2.504-1.016-3.891c-3.432-8.908-9.59-24.08-12.093-30.328
				C589.772,838.76,611.786,856.096,613.38,861.162z"/>
			<path fill="#fff" d="M607.767,294.519c179.144,0,324.879,145.743,324.879,324.881c0,15.985-1.201,31.687-3.448,47.058
				c5.794,6.836,11.215,13.978,16.471,21.241c4.442-22.081,6.794-44.911,6.794-68.298c0-190.371-154.325-344.696-344.696-344.696
				c-68.616,0-132.511,20.108-186.209,54.684c6.809,4.074,14.104,7.432,20.791,10.532
				C490.832,311.108,547.39,294.519,607.767,294.519z"/>
			<path fill="#fff" d="M820.08,865.035c-56.972,49.335-131.202,79.248-212.314,79.248c-179.136,0-324.877-145.747-324.877-324.883
				c0-33.088,5.005-65.021,14.239-95.121c-6.494-1.676-12.803-3.743-18.867-6.29c-9.855,32.063-15.191,66.114-15.191,101.411
				c0,190.365,154.333,344.698,344.696,344.698c90.888,0,173.514-35.213,235.071-92.712
				C835.172,869.756,827.569,867.692,820.08,865.035z"/>
		</g>
		<g>
			<path fill="#fff" d="M408.276,157.477l12.603,33.736l55.792-20.841l6.586,17.637l-55.784,20.844l14.947,40.001l-22.829,8.525l-40.73-109.017
				l80.387-30.032l6.594,17.643L408.276,157.477z"/>
			<path fill="#fff" d="M583.207,216.541l-13.804-28.287l-44.034,5.307l-6.695,30.761l-24.194,2.915l28.228-120.622l28.536-3.44l55.914,110.476
				L583.207,216.541z M539.122,122.69l-0.278,1.863c-0.308,2.035-0.695,4.356-1.159,6.962c-0.458,2.606-3.49,17.007-9.098,43.194
				l33.207-4.004l-15.398-31.842l-4.87-10.724L539.122,122.69z"/>
			<path fill="#fff" d="M694.213,227.882l-19.424-48.013l-28.186-4.665l-7.224,43.593l-24.037-3.98L634.35,100l57.367,9.501
				c13.689,2.264,23.765,6.966,30.238,14.093c6.466,7.122,8.783,16.205,6.96,27.235c-1.331,8.035-4.764,14.596-10.292,19.682
				c-5.536,5.085-12.337,7.909-20.412,8.464l23.058,53.382L694.213,227.882z M704.547,147.797
				c1.831-11.029-4.32-17.716-18.445-20.054l-30.803-5.099l-5.614,33.901l31.454,5.206c6.73,1.115,12.094,0.443,16.077-2.028
				C701.193,157.259,703.64,153.283,704.547,147.797z"/>
			<path fill="#fff" d="M814.244,277.898l31.792-62.962c0.721-1.427,1.458-2.843,2.202-4.259c0.737-1.409,4.063-7.413,9.971-18.006
				c-10.171,11.462-17.401,19.375-21.707,23.742l-47.99,48.494l-15.483-7.821l10.541-67.408l6.072-31.63
				c-5.171,11.698-8.682,19.393-10.549,23.08l-31.797,62.962l-19.311-9.755l52.46-103.883l29.123,14.709l-10.763,67.482
				l-1.209,6.422l-3.497,15.72l13.059-14.317l49.893-51.33l28.973,14.632l-52.467,103.883L814.244,277.898z"/>
		</g>
		<g>
			<path fill="#fff" d="M347.114,959.928c-3.662,4.11-7.867,6.949-12.616,8.507c-4.75,1.559-9.656,1.67-14.72,0.33
				c-5.057-1.342-9.991-4.149-14.791-8.422l-15.848-14.123l-20.012,22.458l-13.359-11.895l56.851-63.82l28.665,25.546
				c7.638,6.805,11.951,13.8,12.939,20.991C355.216,946.693,352.835,953.499,347.114,959.928z M333.453,948.173
				c5.979-6.704,5.007-13.582-2.896-20.622l-13.817-12.309l-18.445,20.697l14.176,12.628c3.69,3.283,7.344,4.898,10.956,4.845
				C327.045,953.367,330.392,951.617,333.453,948.173z"/>
			<path fill="#fff" d="M377.795,1046.867l-0.737-38.027l-18.116-10.596l-16.377,28.01l-15.448-9.033l43.141-73.768l36.861,21.563
				c8.796,5.143,14.483,11,17.049,17.587c2.56,6.588,1.781,13.418-2.359,20.505c-3.026,5.167-7.111,8.764-12.223,10.803
				c-5.128,2.042-10.542,2.189-16.228,0.458l1.823,42.661L377.795,1046.867z M405.882,994.641c4.148-7.081,1.68-13.285-7.396-18.584
				l-19.79-11.58l-12.738,21.781l20.212,11.823c4.327,2.524,8.174,3.468,11.557,2.825
				C401.096,1000.255,403.822,998.165,405.882,994.641z"/>
			<path fill="#fff" d="M508.405,1050.45c-2.726,8.478-6.794,15.384-12.202,20.741c-5.421,5.357-11.793,8.736-19.117,10.131
				c-7.338,1.413-15.155,0.775-23.472-1.899c-12.788-4.099-21.6-11.086-26.434-20.941c-4.841-9.86-5.164-21.328-0.958-34.423
				c4.198-13.049,11.078-22.064,20.668-27.06c9.591-4.995,20.835-5.417,33.73-1.269c12.895,4.137,21.785,11.072,26.67,20.794
				C512.174,1026.244,512.546,1037.551,508.405,1050.45z M491.018,1044.868c2.818-8.772,2.947-16.325,0.394-22.644
				c-2.554-6.322-7.589-10.688-15.091-13.101c-7.623-2.447-14.31-1.867-20.061,1.748c-5.75,3.605-10.042,9.849-12.882,18.699
				c-2.867,8.932-3.003,16.653-0.399,23.154c2.602,6.508,7.581,10.939,14.932,13.3c7.625,2.453,14.304,1.842,20.054-1.835
				C483.709,1060.514,488.065,1054.073,491.018,1044.868z"/>
			<path fill="#fff" d="M600.143,1059.823c-0.823,8.772-3.261,16.278-7.317,22.493c-4.055,6.218-9.39,10.767-16.02,13.636
				c-6.623,2.878-14.003,3.936-22.135,3.168l-34.423-3.222l7.961-85.09l30.803,2.886c14.333,1.34,25.089,5.996,32.263,13.956
				C598.448,1035.61,601.401,1046.334,600.143,1059.823z M582.206,1058.143c0.851-9.14-0.865-16.339-5.171-21.592
				c-4.299-5.254-10.857-8.297-19.676-9.119l-12.622-1.188l-5.386,57.556l15.091,1.409c7.66,0.722,13.983-1.348,18.989-6.201
				C578.43,1074.156,581.355,1067.201,582.206,1058.143z"/>
			<path fill="#fff" d="M656.292,1099.574c-11.693,1.341-20.97-0.483-27.827-5.479c-6.859-4.996-10.9-12.798-12.116-23.397l-6.086-53.093
				l17.786-2.037l5.922,51.712c0.765,6.705,2.947,11.611,6.536,14.726c3.591,3.104,8.482,4.303,14.669,3.598
				c6.344-0.729,11.021-3.104,14.018-7.134c2.997-4.024,4.112-9.434,3.325-16.224l-5.849-51.101l17.78-2.039l5.979,52.192
				c1.229,10.763-1.138,19.492-7.102,26.179C677.355,1094.167,668.345,1098.197,656.292,1099.574z"/>
			<path fill="#fff" d="M754.511,1063.249c10.234-3.419,15.64-10.932,16.207-22.543l16.642,0.651c-0.58,8.89-3.297,16.271-8.182,22.135
				c-4.885,5.872-11.629,10.238-20.218,13.103c-13.046,4.352-24.353,4.023-33.922-0.991c-9.584-5.009-16.586-14.149-21.02-27.428
				c-4.434-13.307-4.412-24.675,0.072-34.1c4.492-9.423,13.26-16.318,26.298-20.659c9.512-3.175,17.901-3.852,25.153-2.031
				c7.266,1.82,13.332,6.029,18.216,12.63l-13.596,9.072c-2.625-3.644-6.187-6.044-10.685-7.212
				c-4.499-1.163-9.262-0.902-14.289,0.769c-7.674,2.563-12.702,6.883-15.084,12.958c-2.382,6.088-2.045,13.707,1.008,22.883
				c3.104,9.312,7.525,15.753,13.246,19.296C740.078,1065.334,746.802,1065.821,754.511,1063.249z"/>
			<path fill="#fff" d="M812.736,972.026l35.301,62.329l-15.57,8.812l-35.295-62.326l-24.015,13.596l-6.817-12.038l63.653-36.046l6.817,12.044
				L812.736,972.026z"/>
			<path fill="#fff" d="M925.501,945.374c5.4,6.391,7.159,13.285,5.271,20.676c-1.888,7.388-7.417,14.955-16.586,22.7
				c-8.374,7.073-16.192,11.143-23.458,12.194c-7.258,1.052-14.111-0.861-20.554-5.732l11.357-13.338
				c3.819,2.696,7.689,3.74,11.601,3.104c3.911-0.626,8.168-2.894,12.773-6.781c9.541-8.06,11.864-14.993,6.958-20.801
				c-1.565-1.854-3.411-2.919-5.513-3.201c-2.117-0.275-4.513,0.021-7.188,0.908c-2.661,0.873-7.317,3.129-13.932,6.758
				c-5.843,2.99-10.02,4.935-12.523,5.858c-2.495,0.926-4.921,1.571-7.258,1.932c-2.346,0.361-4.62,0.336-6.817-0.079
				c-2.203-0.414-4.362-1.262-6.479-2.55c-2.11-1.283-4.148-3.081-6.107-5.392c-4.985-5.905-6.588-12.298-4.799-19.182
				c1.788-6.876,6.908-13.886,15.376-21.044c8.09-6.831,15.234-10.696,21.442-11.598c6.194-0.893,12.351,1.077,18.46,5.93
				l-11.729,12.991c-3.055-2.235-6.223-3.176-9.513-2.847c-3.289,0.348-6.872,2.157-10.763,5.45
				c-8.275,6.989-10.227,13.077-5.843,18.27c1.43,1.702,3.047,2.72,4.841,3.058c1.795,0.336,3.876,0.149,6.244-0.548
				c2.375-0.708,6.68-2.722,12.931-6.04c7.388-3.965,12.917-6.53,16.564-7.684c3.662-1.159,6.909-1.653,9.749-1.481
				c2.846,0.164,5.565,0.941,8.153,2.321C920.752,940.607,923.197,942.652,925.501,945.374z"/>
		</g>
	</g>
	<path fill="#fff" d="M353.414,272.23c9.69-6.792,19.668-13.193,29.91-19.193c-1.459-1.951-2.633-4.119-3.44-6.447
		c-10.492,6.137-20.726,12.677-30.647,19.626C350.976,268.022,352.362,270.052,353.414,272.23z"/>
	<path fill="#fff" d="M1030.233,624.554c0,105.374-38.097,202.004-101.221,276.885c0.043,0.061,0.093,0.115,0.136,0.172
		c1.479,1.966,2.846,3.998,4.205,6.032c64.947-76.361,104.204-175.219,104.204-283.089c0-140.707-66.793-266.067-170.296-346.162
		c-0.208,0.336-0.422,0.664-0.622,1c-1.052,1.781-2.081,3.576-3.125,5.361C964.872,363.536,1030.233,486.535,1030.233,624.554z"/>
	<path fill="#fff" d="M261.182,889.413c-57.244-73.072-91.417-165.05-91.417-264.859c0-77.327,20.533-149.931,56.408-212.692
		c-1.037-3.04-2.081-6.079-3.146-9.108c-38.464,65.071-60.585,140.886-60.585,221.8c0,101.672,34.858,195.353,93.248,269.723
		C257.528,892.66,259.351,891.037,261.182,889.413z"/>
</g>
</svg>
